<?xml version="1.0" encoding="utf-8"?>
<!-- Generator: Adobe Illustrator 14.0.0, SVG Export Plug-In . SVG Version: 6.00 Build 43363)  -->
<!DOCTYPE svg PUBLIC "-//W3C//DTD SVG 1.1//EN" "http://www.w3.org/Graphics/SVG/1.1/DTD/svg11.dtd">
<svg version="1.1" id="Layer_1" xmlns="http://www.w3.org/2000/svg" xmlns:xlink="http://www.w3.org/1999/xlink" x="0px" y="0px"
	 width="306.75px" height="344.35px" viewBox="0 0 306.75 344.35" enable-background="new 0 0 306.75 344.35" xml:space="preserve">
<g>
	<g>
		<g>
			<g>
				<g>
					<g>
						<g>
							<g>
								<path d="M73.446,146.112C73.521,145.965,73.475,145.872,73.446,146.112L73.446,146.112z"/>
								<polygon points="106.673,253.943 106.768,254.006 107.236,253.718 								"/>
								<path d="M123.057,263.378l0.092,0.092C123.179,263.354,123.24,263.248,123.057,263.378z"/>
								<path d="M77.717,221.857c-0.059-0.158-0.138-0.226-0.225-0.261L77.717,221.857z"/>
								<polygon points="85.624,111.591 85.598,111.677 85.804,111.542 								"/>
								<path d="M85.74,112.111c-0.332,0.325-0.194-0.242-0.142-0.434c-0.463,0.307-0.707,0.735-0.824,1.234
									C85.049,113.052,85.437,112.198,85.74,112.111z"/>
								<path d="M128.65,60.941l-0.089,0.222L128.65,60.941z"/>
								<path d="M64.79,230.062l-0.207-0.28C64.648,229.947,64.72,230.021,64.79,230.062z"/>
								<path d="M120.102,67.249l0.227,0.448C120.277,67.476,120.196,67.343,120.102,67.249z"/>
								<path d="M107.236,253.718l0.218-0.089L107.236,253.718z"/>
								<polygon points="140.353,267.813 140.398,268.192 140.449,268.202 								"/>
								<path d="M234.236,257.468l-0.123-0.154l-0.219,0.473C234.07,257.677,234.182,257.571,234.236,257.468z"/>
								<path d="M165.459,270.528l0.074-0.178c-0.449-0.129-1.6-0.027-3.068,0.024l-0.057,0.604
									C163.428,270.872,164.443,270.721,165.459,270.528z"/>
								<path d="M196.627,279.473l-3.158-0.498c9.01-2.766,13.551-2.917,20.859-6.381l-0.334,0.396
									c1.182-0.231,0.953-2.668,14.096-4.294l0.045,0.112c0.408-0.184,0.314-0.406,1.268-0.435l-2.348,0.127
									c1.123-0.778,2-1.712,3.598-2.472c0.396-0.024,0.609,0.154,0.717,0.318l3.906-1.903l1.533,0.189
									c1.045-0.929-0.16-2.151,3.436-2.775c-1.678-0.479,1.301-1.368,0.664-1.713c0.219,0.054,0.674,0.074,1.051,0.114
									c1.844-1.011,5.281-2.979,5.904-3.919c-0.014,0.006-8.438,1.297-10.893,1.093c2.768-0.95,0.637-0.452-0.039-0.56
									l-0.061,0.341c-1.715,0.436-2.008-0.226-2.885-0.065l0.127,0.164l0.063-0.133c0.127,0.084,0.117,0.185,0.061,0.287
									c0.082,0.133,0.059,0.275-0.395,0.425l0.053-0.106c-0.627,0.385-1.824,0.777-2.346,0.947l-0.248-0.551
									c-0.723,1.636-8.652,1.705-10.256,2.251c-1.871-0.068-3.529,1.592-5.701,1.925c-3.297,0.958-1.91-0.259-3.695-0.181
									c-2.139,0.354,0.635,0.521-0.16,0.846l-2.689,0.046c1.387-0.54,0.504-0.633,0.178-0.759
									c-2.143,0.566-5.773,0.537-6.068,1.893c-2.998,0.35-3.146-0.172-4.383,0.115c0.469,0.101,1.338,0.072,1.412,0.304
									c-1.289-0.201-0.512,0.274-0.01,0.262c-1.633,0.994-9.6,0.331-9.66,1.606l-0.055-0.235
									c-0.186,1.052,0.693,1.832-0.422,2.644l-0.924-0.241l-1.152,0.697c-0.902-0.122-0.547-0.472-0.572-0.59
									c-1.922,0.961-4.893,0.853-7.367,1.204l3.102,2.159c-2.23-0.197-6.201-0.788-6.498,0.074l-1.393-0.719
									c-4.422-1.142-2.842,1.176-4.594,0.836l-2.219-0.786l2.102-0.173c-2.15-0.306-3.018-0.551-4.727-1.037l-0.016,0.027
									c0.117,0.03,0.195,0.07,0.215,0.128l-0.289,0.05c-0.213,0.499-1.281,0.982-2.76,0.984c-2.092-0.095-3.734,0.83-7.078-0.251
									l-0.834,0.996l-2.503-0.623l0.021-0.799c2.44,0.13,7.028-0.216,10.161-0.461l0.037-0.366
									c-1.854,0.076-3.955,0.52-5.186,0.49c-0.605-0.167-2.123-1.014-1.027-1.542l-1.133,0.771
									c-6.134,0.03-6.23,0.02-12.442-1.479l0.501,0.465c-1.273,0.085-2.559,0.165-2.817-0.521
									c-3.742-0.655-7.492-1.923-9.563-3.518l-0.744,0.793c-0.771-0.213-1.516-1.899-2.229-0.759l-1.726-0.09
									c-1-0.395-1.824-0.03-2.802-0.958v-0.001l-0.006-0.005l-0.179-0.186l-0.014,0.079c-2.132-1.24-0.264,0.801-2.689-0.681
									c-0.582-0.954-1.39,0.815-2.562,0.044l-0.713-1.799c-1.916-1.676-2.864-0.611-6.02-2.292
									c-1.308-1.19-1.354-2.671,0.075-2.969c-1.903,0.288-0.983,0.344-3.015-0.197c0.001-0.596,0.245-0.573,0.861-0.734
									c-1.192-1.433-1.189-0.162-2.306-0.915c-0.844,0.577-2.076,1.579-2.483,1.369l0.273,0.558
									c-1.474-0.449-3.031-1.112-4.064-2.601l0.345-0.342l-1.577-0.949l0.299-0.551c-0.71-0.494-1.45-0.957-2.114-1.513
									l0.154,0.365c-0.503-0.349-2.139-1.55-2.768-2.554l0.268-0.22c-1.546-3.001-4.345-3.947-6.896-6.823l0.868-0.065
									c-0.291-1.415-1.065,0.409-1.741-1.031l0.632-0.591c-1.713-0.389-0.867-1.54-1.075-2.518l-0.647,1.008l-0.835-1.563
									c-0.77-1.822,0.521-1.779,1.16-1.889l-1.457-0.578l0.69-0.756c-1.484-0.162-0.402-0.852-1.754-1.957
									c0.253-0.313,0.647-0.066,0.502-0.631l-2.604-1.647l1.383,1.116l-1.357,0.559c-1.869-0.952-1.055-2.129-1.976-3.051
									l0.777,0.563c-1.249-1.649-0.753-2.034-0.99-3.188c-0.079,0.432-0.185,1.099-0.737,0.448
									c-0.346-0.509,0.292-0.51,0.203-1.102c-0.927,0.3-2.002-0.843-2.137-2.252c0.134-0.041,0.267-0.068,0.383-0.024
									c-0.283-0.246-0.585-0.31-0.616-0.942l1.132-0.107l-1.399-0.642c-0.002-0.821-1.131-1.57-0.419-1.744l0.357,0.323
									c-0.631-1.814-1.235-3.634-1.72-5.498l0.792-0.345c-1.317-0.172-0.541-3.088-1.873-2.493
									c0.487-1.269-1.698-3.991,0.087-3.794c-0.765-3.664-2.771-5.369-2.747-10.086c1.173-1.845,0.135-6.205,0.1-9.183
									c-0.919-5.729-1.585-9.515-1.702-15.543c2.133-3.451,0.04-9.061,1.758-12.798l-0.601-1.176
									c1.615-2.349,0.868-6.539,2.896-9.823c-0.121-0.944-0.113-1.426-0.091-1.634c-0.076,0.152-0.281,0.36-0.784,0.319
									c0.591-0.93,0.672-3.092,1.598-2.69l0.036,0.282c0.883,0.399,0.418-3.156,1.561-4.035l-1.199,0.311l0.721-1.848l0.049,0.567
									c0.343-8.979,4.959-11.415,6.272-19.617c0.6,1.465,0.124-1.709,1.318-1.262c2.267-1.16,1.375-3.516,1.756-5.229
									c-0.056-0.029-0.111-0.081-0.153-0.211c0.497-0.847,0.973-1.704,1.516-2.523c0.543,2.301-0.123-2.484,0.279-0.422
									c4.701-6.096,9.183-15.079,15.251-21.605l-0.563,0.042c1.426-1.729,2.929-4.135,4.537-4.989
									c1.578-0.862,1.738-3.456,2.148-3.995c0.782-1.86,2.973-2.115,2.365-1.58c1.24-1.571,1.613-3.91,4.048-5.417
									c1.612,0.372,4.78-6.121,5.9-4.961l-0.06-0.119c3.417-1.456,4.929-4.991,8.643-6.485c0,0,0.008,0.135-0.035,0.297
									c1.173-2.818,2.525-5.526,3.882-8.366l-4.762-2.957c-2.762,0.209-5.597,0.422-8.377,0.822
									c-5.238,4.18-10.109,8.787-14.75,13.567c-4.214,3.282-8.34,6.742-12.227,10.479c-8.408,9.998-15.606,20.992-21.364,32.667
									l-0.239,2.991c-5.241,6.014-6.809,16.025-10.545,23.442l0.904,0.458c-0.588,2.243-1.137,1.919-1.464,2.424
									c-5.943,20.979-6.074,43.57-4.11,63.153c-0.387,1.999,1.145,7.634,0.871,9.255c2.702,6.018,4.817,12.468,7.318,18.489
									l-0.202-0.182l1.436,2.717c-0.021,0.153-0.121,0.218-0.231,0.161c2.241,2.757,4.048,7.938,6.113,11.743l-0.231-0.149
									c13.583,21.479,35.599,33.811,59.01,40.122c10.961,4.062,24.416,2.679,37.134,2.926
									C169.42,286.181,194.729,280.872,196.627,279.473z"/>
								<path d="M231.369,266.348l-0.086,0.042C231.447,266.775,231.52,266.572,231.369,266.348z"/>
								<polygon points="179.619,269.986 179.775,269.969 179.1,269.491 								"/>
								<path d="M210.15,261.749c-1.387,0.351-1.416,0.469-1.174,0.562C209.471,262.162,209.887,261.981,210.15,261.749z"/>
								<path d="M242.145,260.721c0.719-0.301,0.344-0.401-0.186-0.461c-0.697,0.382-1.186,0.639-1.186,0.639
									C241.209,260.805,241.695,260.819,242.145,260.721z"/>
								<path d="M236.932,256.874l0.076-0.411C236.635,256.729,236.701,256.835,236.932,256.874z"/>
							</g>
						</g>
					</g>
				</g>
			</g>
			<g>
				<g>
					<g>
						<path fill-rule="evenodd" clip-rule="evenodd" d="M112.571,301.678c-0.088-0.016-0.138,0.021-0.174,0.074
							C112.527,301.812,112.658,301.79,112.571,301.678z"/>
						<path fill-rule="evenodd" clip-rule="evenodd" d="M125.671,312.217c-0.087,0.003-0.283,0.056-0.03,0.188
							C125.709,312.35,125.661,312.28,125.671,312.217z"/>
						<path fill-rule="evenodd" clip-rule="evenodd" d="M125.866,312.624c-0.121-0.059-0.078,0.099-0.133,0.127
							C125.883,312.839,125.92,312.695,125.866,312.624z"/>
						<path fill-rule="evenodd" clip-rule="evenodd" d="M123.325,311.933c-0.096-0.015-0.207,0.03-0.133,0.127
							C123.312,312.118,123.27,311.961,123.325,311.933z"/>
						<path fill-rule="evenodd" clip-rule="evenodd" d="M125.442,313.577c-0.165-0.027-0.261,0.036-0.295,0.18
							C125.331,313.81,125.356,313.653,125.442,313.577z"/>
						<path fill-rule="evenodd" clip-rule="evenodd" d="M113.757,307.613c-0.091,0.126-0.451,0.278-0.267,0.518
							C113.436,307.879,113.793,307.839,113.757,307.613z"/>
						<path fill-rule="evenodd" clip-rule="evenodd" d="M118.46,310.911c-0.401-0.014-0.241,0.484-0.567,0.578
							c0.234,0.181,0.219-0.292,0.456-0.232l-0.034-0.195C118.369,311.014,118.569,311.06,118.46,310.911z"/>
						<path fill-rule="evenodd" clip-rule="evenodd" d="M117.991,313.391c-0.133-0.085-0.228-0.121-0.242-0.053l0.196,0.144
							L117.991,313.391z"/>
						<path fill-rule="evenodd" clip-rule="evenodd" d="M115.737,313.189c-0.313-0.005-0.511,0.292-0.429,0.57
							c-0.046,0.003-0.132-0.046-0.139,0.007c-0.088,0.085-0.128,0.367-0.006,0.143
							C115.486,313.734,115.452,313.424,115.737,313.189z"/>
						<path fill-rule="evenodd" clip-rule="evenodd" d="M118.257,314.836c-0.097-0.015-0.153,0.024-0.185,0.097
							C118.208,314.991,118.298,314.895,118.257,314.836z"/>
						<path fill-rule="evenodd" clip-rule="evenodd" d="M111.4,311.012c-0.13-0.045-0.092,0.131-0.156,0.173
							C111.338,311.183,111.476,311.124,111.4,311.012z"/>
						<path fill-rule="evenodd" clip-rule="evenodd" d="M117.295,314.479c-0.162-0.024-0.197,0.119-0.335,0.127
							C117.128,314.788,117.222,314.548,117.295,314.479z"/>
						<path fill-rule="evenodd" clip-rule="evenodd" d="M117.963,315.016c-0.185-0.053-0.209,0.104-0.296,0.18
							C117.827,315.214,117.86,315.069,117.963,315.016z"/>
						<path fill-rule="evenodd" clip-rule="evenodd" d="M110.052,310.489c-0.18-0.097-0.211,0.001-0.289,0.037
							C109.933,310.61,109.959,310.508,110.052,310.489z"/>
						<path fill-rule="evenodd" clip-rule="evenodd" d="M111.237,311.327c-0.187-0.015-0.289,0.254-0.334,0.391
							C111.113,311.636,111.171,311.514,111.237,311.327z"/>
						<path fill-rule="evenodd" clip-rule="evenodd" d="M117.644,315.239c-0.302-0.028-0.214,0.246-0.248,0.354
							C117.595,315.571,117.432,315.272,117.644,315.239z"/>
						<path fill-rule="evenodd" clip-rule="evenodd" d="M115.07,314.09c-0.112-0.01-0.17,0.054-0.248,0.089
							C115.039,314.325,115.015,314.156,115.07,314.09z"/>
						<path fill-rule="evenodd" clip-rule="evenodd" d="M115.484,314.595c-0.158-0.024-0.126,0.057-0.145,0.15
							C115.465,314.796,115.424,314.63,115.484,314.595z"/>
						<path fill-rule="evenodd" clip-rule="evenodd" d="M116,315.16c-0.148-0.057-0.272,0.09,0.023,0.218
							c0.049-0.033-0.052-0.086-0.133-0.136C115.898,315.176,116.011,315.249,116,315.16z"/>
						<path fill-rule="evenodd" clip-rule="evenodd" d="M111.792,313.262C112.066,313.28,111.856,312.904,111.792,313.262
							L111.792,313.262z"/>
						<path fill-rule="evenodd" clip-rule="evenodd" d="M109.757,312.368c-0.158,0.026-0.182,0.133-0.202,0.263
							C109.663,312.605,109.777,312.439,109.757,312.368z"/>
						<path fill-rule="evenodd" clip-rule="evenodd" d="M109.413,312.255c-0.142-0.127-0.235,0.054-0.059,0.112L109.413,312.255z"/>
						<path fill-rule="evenodd" clip-rule="evenodd" d="M106.573,310.833c-0.124-0.032-0.189,0.022-0.186,0.098
							C106.523,310.99,106.615,310.892,106.573,310.833z"/>
						<path fill-rule="evenodd" clip-rule="evenodd" d="M106.456,311.585C106.111,311.624,106.317,311.834,106.456,311.585
							L106.456,311.585z"/>
						<path fill-rule="evenodd" clip-rule="evenodd" d="M109.274,306.638l-0.265-0.008c0.167,0.191-0.091,0.204-0.048,0.353
							C109.254,307.008,109.036,306.715,109.274,306.638z"/>
						<path fill-rule="evenodd" clip-rule="evenodd" d="M112.251,311.714c-0.05,0.042,0.069,0.104-0.006,0.143l0.167,0.068
							c-0.023,0.133-0.138,0.146-0.191,0.24l0.167,0.067c-0.351-0.043,0.004,0.363-0.278,0.541c0.44-0.068,0.545-0.742,0.741-0.915
							c-0.222-0.09-0.146,0.21-0.387,0.097C112.299,311.863,112.507,311.816,112.251,311.714z"/>
						<path fill-rule="evenodd" clip-rule="evenodd" d="M116.971,314.847l-0.052-0.03c-0.125-0.064-0.081,0.082-0.058,0.113
							C117.022,314.99,117.111,314.653,116.971,314.847z"/>
						<path fill-rule="evenodd" clip-rule="evenodd" d="M115.438,316.12l0.208,0.122c-0.094,0.132-0.274,0.326-0.14,0.533
							c0.243-0.077,0.095-0.641,0.491-0.563l-0.045-0.173c0.554-0.189,0.453-0.813,0.897-1.088
							c-0.654-0.149-0.146,0.704-0.833,0.568c0.01,0.051,0.054,0.033,0.063,0.008C115.968,315.7,115.904,316.091,115.438,316.12z"/>
						<path fill-rule="evenodd" clip-rule="evenodd" d="M108.974,312.058l-0.276,0.015
							C108.696,312.098,109.088,312.186,108.974,312.058z"/>
						<path fill-rule="evenodd" clip-rule="evenodd" d="M131.234,266.37c0.056-0.099,0.308-0.093,0.37-0.194
							c0.145-0.237,0.073-0.571,0.319-0.751c0.217-0.158,0.611-0.194,0.803-0.381c0.142-0.139,0.251-0.146,0.382-0.217
							c0.38-0.209,0.441-0.529,1.056-0.351c0.485-0.016,0.859-0.175,1.304-0.177l0.11-0.083c1.119-0.011,2.641,0.482,3.581,0.243
							c0.333,0.13,0.793,0.358,1.232,0.485c0.196,0.057,0.367,0.021,0.56,0.092c0.714,0.264,1.466,0.857,2.085,0.923
							c0.168,0.084,0.187,0.15,0.288,0.227c1.283,0.759,2.309,1.493,3.333,2.031c0.493,0.505,1.192,0.877,1.674,1.328l0.811,0.912
							c0.312,0.334,0.533,0.622,0.862,0.942c0.387,0.229,0.376,0.412,0.685,0.633c0.138,0.313,0.392,0.638,0.521,0.949
							c0.12,0.094,0.172,0.181,0.328,0.279c0.442,0.755,1.038,1.604,0.997,2.251l-0.054,0.232c-0.231,0.358-0.435,1.003-0.033,1.503
							c0.002,0.091-0.123,0.015-0.121,0.105c0.221,0.188,0.568,0.66,0.453,0.821c-0.04,0.055-0.431-0.041-0.565,0.051
							c-0.201,0.137,0.138,0.583-0.031,0.714c-0.078,0.061-0.426-0.035-0.542,0.006c-0.305,0.108-0.438,0.614-0.441,0.856
							c-0.002,0.19,0.211,0.389,0.098,0.466c-0.104,0.069-0.416-0.018-0.808-0.266c-1.037-0.243-0.791,0.873-1.428,1.071
							c0.125,0.501-0.572,0.491-0.694,0.825c-0.024,0.067,0.039,0.203-0.001,0.263c-0.066,0.101-0.315,0.138-0.456,0.232
							c-0.242,0.162-0.337,0.375-0.584,0.479c0.341,0.595-0.377,0.451-0.498,0.705c-0.046,0.096,0.065,0.283,0.004,0.384
							c-0.052,0.085-0.25,0.078-0.294,0.18c-0.046,0.1,0.061,0.295,0.004,0.384c-0.042,0.065-0.175,0.058-0.197,0.119
							c-0.028,0.081,0.068,0.2,0,0.264c-0.071,0.065-0.316,0.028-0.387,0.097c-0.259,0.246-0.238,0.692-0.787,0.742
							c0.021,0.696-0.757,0.827-0.771,1.629c-0.193,0.087-0.333,0.151-0.324,0.367c-0.058,0.013-0.182-0.062-0.202,0
							c-0.033,0.401-0.661,0.469-0.666,0.9l-0.179-0.046c-0.017,0.589-0.317,1.168-0.822,1.336c0.097,0.423-0.386,0.56-0.592,0.886
							c-0.097,0.153-0.048,0.391-0.191,0.503c-0.282,0.22-0.371,0.674-0.603,0.908c-0.069,0.069-0.264,0.062-0.335,0.127
							c-0.131,0.119-0.075,0.363-0.244,0.473c-0.647,0.422-0.856,1.228-1.171,1.749c-0.097,0.161-0.346,0.199-0.514,0.345
							c-0.278,0.239-0.188,0.715-0.436,0.976l-0.271,0.135c-0.163,0.147-0.167,0.378-0.29,0.563
							c-0.302,0.451-0.866,0.747-0.887,1.329c-0.673,0.355-1.051,1.235-1.494,1.853c-0.368-0.022-0.209,0.261-0.335,0.39
							c-0.389,0.398-1.063,0.802-1.135,1.418c-1.721,1.747-2.778,4.008-4.551,5.694c0.118,0.285-0.165,0.45-0.395,0.502
							c0.116,0.11,0.053,0.198,0.052,0.294c-0.494,0.049-0.408,0.532-0.684,0.803c-0.383-0.119-0.245,0.225-0.571,0.193
							c0.152,0.161,0.199,0.024,0.247,0.174c-0.729-0.156-0.866,0.714-1.22,0.929c0.012-0.022-0.076-0.081-0.104-0.061
							c0.105,0.166-0.218,0.021-0.26,0.112c-0.41,0.529-1.251,0.579-1.762,0.935c0.049,0.112,0.209,0.43-0.048,0.354
							c0.017-0.11,0.101-0.211-0.154-0.354c-0.006,0.195-0.233,0.32-0.491,0.299c-0.132,0.167-0.053,0.34-0.336,0.391
							c-0.02,0.042-0.238-0.195-0.282-0.106c-0.019,0.333-0.316,0.328-0.324,0.63c-0.277-0.075-0.507,0.149-0.429,0.308
							c-0.146,0.013-0.149-0.2-0.247-0.174c-0.197,0.162-0.412,0.293-0.365,0.578c-0.14-0.02-0.31-0.079-0.392-0.023
							c-0.049,0.042,0.242,0.125,0.12,0.158c-0.178-0.008-0.203-0.198-0.391-0.287c-0.146,0.053-0.26-0.043-0.433-0.076
							c0.055,0.228-0.293,0.153-0.456,0.232c-0.17,0.08-0.172,0.282-0.325,0.367c-0.131,0.072-0.338,0.013-0.409,0.142
							c-0.059,0.104,0.075,0.301-0.007,0.406c-0.079,0.034-0.168-0.155-0.23-0.076c-0.3,0.361-0.601,0.723-1.099,0.824
							c0.673-0.211,0.44-0.797,1.041-0.975c-0.195-0.198,0.249-0.092-0.028-0.339c0.149,0.053,0.188,0.2,0.22,0.099
							c-0.001-0.04-0.052-0.086-0.006-0.12c-0.309-0.109-0.259-0.192-0.432-0.34c0.218-0.327,0.503-0.515,0.684-0.803
							c0.097-0.015,0.135,0.132,0.219,0.099c0.112-0.083,0.122-0.192,0.277-0.277c-0.181-0.162-0.229-0.31-0.523-0.423
							c-0.217,0.404-0.938,0.697-1.261,1.14c-0.098,0.134,0.022,0.405-0.353,0.292c0.225-0.15-0.034-0.535,0.042-0.736
							c0.1-0.262,0.575-0.319,0.643-0.593c0.019-0.077-0.059-0.159-0.022-0.218c0.027-0.046,0.227-0.032,0.249-0.09
							c0.022-0.063-0.087-0.132-0.046-0.173c0.082-0.084,0.298-0.059,0.357-0.172c0.1-0.188,0.014-0.484,0.198-0.646
							c-0.069-0.092-0.308-0.212-0.374-0.189c-0.129,0.246-0.166,0.278-0.331,0.511c-0.006-0.041-0.043-0.085-0.132-0.136
							c-0.029,0.084,0.02,0.149-0.133,0.127c0.118-0.174-0.29-0.396-0.513-0.445c-0.198,0.49-0.71,0.932-0.782,1.39
							c-0.134-0.025-0.296-0.086-0.381-0.047c-0.378,0.339-0.523,0.883-0.915,1.254c-0.003-0.692,0.497-1.113,0.974-1.63
							c-0.035-0.052-0.188-0.118-0.12-0.158c0.296-0.164,0.433-0.48,0.602-0.645l-0.534-0.663c0.558-0.507-0.081-1.503,0.271-2.097
							c-0.158-0.091-0.177-0.165-0.276-0.249l-0.483-0.106c-0.068,0.091-0.211,0.141-0.151,0.293
							c-0.759,0.224-0.855,1.128-1.492,1.59c-0.302-0.078-0.463-0.255-0.65-0.438c0.03-0.388,0.554-0.445,0.424-0.953
							c-0.54-0.478-1.035-0.612-1.216-0.388c-0.299,0.372-0.657,1.107-0.731,1.419c-1.071,0.975-1.629,2.243-2.64,3.294
							c0.289-0.747,0.987-1.181,1.125-1.922c0.11,0.069,0.174,0.077,0.189,0.023c0.295-0.634,0.699-1.291,1.211-1.696
							c-0.24-0.441,0.449-0.604,0.205-1.052c-0.617-0.294-0.994-0.271-1.279-0.131c0.174-0.215,0.111-0.548,0.192-0.767
							c0.066-0.18,0.409-0.353,0.33-0.511c-0.019-0.038-0.161-0.071-0.144-0.112c-0.03,0.071,0.103-0.099,0.121-0.106
							c0.12-0.047,0.153-0.005,0.196-0.119c0.057-0.147,0.046-0.15-0.039-0.315c0.184-0.517,0.631-0.855,0.783-1.389
							c0.016-0.056,0.083-0.146,0.08-0.158c-0.01-0.065-0.134-0.089-0.119-0.158c0.008-0.039,0.122,0.049,0.138-0.007l0.25-0.616
							c0.3-0.429,0.476-1.045,0.72-1.396c0.012-0.104-0.229-0.103-0.161-0.212c0.251-0.705,0.551-1.432,0.9-2.14
							c0.011-0.063-0.238-0.157-0.161-0.212c0.018-0.115,0.254,0.057,0.289-0.036c-0.036-0.092-0.085-0.186-0.189-0.286
							c0.272-0.888,0.959-1.559,1.523-2.304c0.526-0.695,0.967-1.443,1.432-2.124c0.366-0.536,0.903-0.938,1.054-1.523
							c0.573-0.563,0.907-1.146,1.31-1.755c0.289-0.439,0.467-1.007,0.811-1.314c0.061-0.053,0.226-0.059,0.272-0.135
							c0.07-0.113-0.036-0.335,0.03-0.45c0.18-0.313,0.583-0.503,0.758-0.817l0.546-1.059c0.104-0.198,0.382-0.282,0.509-0.465
							c0.084-0.121,0.023-0.337,0.105-0.466c0.228-0.362,0.678-0.601,0.839-0.976c0.216-0.501,0.275-1.112,0.807-1.434
							c0.174-0.602,0.544-1.238,0.934-1.681c-0.169-0.649,0.505-0.816,0.685-1.33l-0.034-0.195c0.108-0.873,1.116-1.313,1.183-2.034
							c0.395-0.049,0.206-0.406,0.262-0.638c0.06-0.251,0.354-0.341,0.48-0.541c0.042-0.064-0.026-0.188,0.001-0.263
							c0.083-0.229,0.375-0.326,0.543-0.532c0.253-0.308,0.023-0.933,0.528-1.156c-0.013-0.414,0.03-0.989,0.478-1.187
							c-0.042-0.811,0.759-1.125,0.939-1.824c0.062-0.236-0.104-0.582,0.262-0.639c-0.151-0.375,0.159-0.528,0.279-0.804
							c0.118-0.271,0.115-0.631,0.21-0.932c0.137-0.429,0.638-0.764,0.241-1.383c-1.096-0.829,0.776-0.047,0.722-0.486
							c-0.142-0.301-0.483-0.478-0.867-0.8c-0.091-0.247,0.096-0.315,0.272-0.397C131.571,267.021,131.111,266.588,131.234,266.37z
							 M121.104,311.926l0.092,0.084C121.471,312.11,121.17,311.793,121.104,311.926z M120.977,311.911
							c-0.13,0.168-0.513,0.282-0.405,0.525c-0.02,0.036-0.274-0.207-0.374-0.189c0.081,0.153,0.122,0.302,0.045,0.437
							c0.422,0.264,0.325-0.151,0.709,0.062c0.025-0.123,0.036-0.184,0.26-0.112c-0.019-0.294,0.271-0.183,0.22-0.428
							C121.162,312.101,121.261,312.064,120.977,311.911z"/>
					</g>
				</g>
			</g>
		</g>
		<g>
			<path fill="#B80000" d="M225.131,114.146c-19.039-34.775-38.268-62.953-2.246-99.608c-34.365,4.834-84.851,40.185-105.023,73.176
				c-85.655,140.078,69.507,199.645,115.876,143.353C181.025,205.979,197.035,154.175,225.131,114.146z M141.538,86.638
				c0,0,71.722,107.764,45.789,93.684s-51.648-65.213-55.798-81.715C127.7,83.382,133.86,78.792,141.538,86.638z M190.049,233.595
				c0,0-19.346,8.195-22.977-0.158c0,0,14.99-36.986,22.818-42.473l8.326,15.055L190.049,233.595z M187.305,127.558
				c-6.641-0.055-11.979-5.482-11.924-12.122s5.482-11.978,12.123-11.923c6.639,0.055,11.977,5.48,11.922,12.122
				C199.371,122.273,193.943,127.612,187.305,127.558z"/>
			<path fill="#B80000" d="M240,221.426c2.035-4.065,3.625-8.546,4.689-13.454c7.652-35.289-3.109-62.638-15.66-86.566
				C194.711,171.45,213.725,202.819,240,221.426z"/>
			<path fill="#B80000" d="M278.977,68.196l5.613-7.978c-10.9,0.819-38.529,24.104-59.459,53.927
				c1.305,2.387,2.611,4.806,3.898,7.26C239.871,105.595,256.035,87.919,278.977,68.196z"/>
			<path fill="#B80000" d="M295.09,244.988c0,0-30.68-6.273-55.09-23.563c-1.766,3.526-3.869,6.737-6.262,9.641
				C248.438,238.062,268.471,242.983,295.09,244.988z"/>
		</g>
	</g>
	<g>
		<g>
			<g>
				<g>
					<g>
						<path d="M145.299,301.876C145.116,301.817,145.015,301.874,145.299,301.876L145.299,301.876z"/>
						<polygon points="117.332,308.019 117.477,308.023 117.808,307.539 						"/>
						<path d="M141.284,310.795l0.144,0.063C141.423,310.737,141.46,310.62,141.284,310.795z"/>
						<path d="M68.461,317.308c0.18-0.043,0.264-0.115,0.315-0.199L68.461,317.308z"/>
						<polygon points="101.953,295.953 102.061,295.952 101.82,295.791 						"/>
						<path d="M102.491,295.693c0.511,0.229-0.19,0.256-0.43,0.259c0.545,0.362,1.129,0.478,1.744,0.449
							C103.851,296.096,102.718,295.962,102.491,295.693z"/>
						<path d="M21.147,293.088l0.238-0.131L21.147,293.088z"/>
						<path d="M61.383,303.63l0.369-0.191C61.544,303.493,61.444,303.562,61.383,303.63z"/>
						<path d="M33.84,293.136l0.132-0.491C33.852,292.85,33.826,293.004,33.84,293.136z"/>
						<path d="M117.808,307.539l0.185-0.18L117.808,307.539z"/>
						<polygon points="163.336,312.819 163.428,313.198 163.488,313.206 						"/>
						<path d="M273.855,328.101l-0.008-0.199l-0.521,0.22C273.561,328.152,273.734,328.144,273.855,328.101z"/>
						<path d="M193.109,314.901l0.094-0.175c-0.521-0.143-1.891-0.112-3.627-0.026l-0.084,0.604L193.109,314.901z"/>
						<path d="M226.182,328.389l-3.053-1.337c10.049-0.127,14.535,1.594,23.154,1.938l-0.512,0.183
							c1.135,0.566,2.451-2.363,15.334,3.916l-0.027,0.117c0.473,0.088,0.525-0.148,1.389,0.38l-2.172-1.259
							c1.471,0.031,2.836-0.272,4.73,0.132c0.365,0.229,0.441,0.505,0.434,0.702l4.633,0.985l1.199,1.134
							c1.502-0.015,1.318-1.83,4.807,0.146c-1.096-1.51,2.047-0.12,1.748-0.813c0.15,0.191,0.521,0.519,0.811,0.807
							c2.266,0.509,6.535,1.531,7.754,1.282c0.016-0.011-8.004-4.997-10.08-6.824c3.094,1.221,0.879,0.108,0.355-0.444l-0.289,0.213
							c-1.832-0.815-1.645-1.492-2.551-1.951l0.002,0.208l0.148-0.06c0.057,0.147-0.02,0.218-0.141,0.259
							c-0.018,0.156-0.139,0.249-0.648,0.066l0.119-0.046c-0.828-0.116-2.184-0.601-2.773-0.813l0.143-0.587
							c-1.689,0.713-9.217-4.1-11.203-4.52c-1.809-1.152-4.434-0.749-6.83-1.56c-3.896-0.923-1.816-1.217-3.717-2.073
							c-2.432-0.782,0.391,0.775-0.615,0.653l-2.855-1.301c1.752,0.183,0.863-0.316,0.578-0.595c-2.57-0.495-6.57-2.107-7.514-0.989
							c-3.467-0.954-3.443-1.406-4.959-1.62c0.492,0.268,1.484,0.563,1.471,0.806c-1.371-0.665-0.689,0.065-0.121,0.239
							c-2.162,0.25-11.139-2.971-11.666-1.597l0.008-0.241c-0.535,0.967,0.24,1.949-1.279,2.443L221,315.906l-1.52,0.4
							c-1.008-0.336-0.508-0.59-0.506-0.711c-2.469,0.421-5.898-0.096-8.879-0.151l3.189,2.625
							c-2.494-0.604-7.041-1.706-7.506-0.821l-1.531-0.847c-5.063-1.51-3.447,0.896-5.455,0.468l-2.539-0.865l2.482-0.099
							c-2.51-0.383-3.51-0.655-5.512-1.206l-0.021,0.027c0.139,0.035,0.229,0.078,0.248,0.136l-0.342,0.039
							c-0.277,0.501-1.553,0.897-3.289,0.936c-2.461-0.047-4.373,0.764-8.303-0.203l-0.959,1.023l-2.938-0.573l-0.004-0.799
							c2.857,0.059,8.246-0.384,11.959-0.585l0.051-0.367c-2.199,0.094-4.678,0.52-6.127,0.482
							c-0.709-0.146-2.518-0.943-1.229-1.508l-1.328,0.808c-7.244,0.157-7.313,0.195-14.775-0.984l0.633,0.43
							c-1.498,0.182-3,0.315-3.373-0.362c-4.42-0.401-9.127-1.363-12.164-2.607l-0.745,0.886c-0.985-0.134-2.363-1.675-2.948-0.4
							l-2.149,0.242c-1.343-0.165-2.207,0.317-3.704-0.326v-0.001l-0.008-0.003l-0.282-0.13l0.012,0.079
							c-3.023-0.621-0.028,0.845-3.484,0.067c-1.077-0.744-1.319,1.109-3.005,0.781l-1.621-1.461
							c-3.022-0.963-3.633,0.357-8.081,0.09c-2.106-0.612-3.069-1.827-1.591-2.762c-2.021,1.117-0.938,0.752-3.541,1.184
							c-0.363-0.533-0.083-0.624,0.512-1.045c-2.241-0.74-1.434,0.37-3.15,0.231c-0.56,0.927-1.232,2.415-1.796,2.441l0.647,0.341
							c-1.854,0.396-3.861,0.51-5.948-0.104l0.111-0.478l-2.261,0.082l-0.099-0.626l-3.215-0.043l0.427,0.197
							c-0.758,0.027-3.244,0.059-4.63-0.367l0.078-0.338c-3.895-1.354-7.249-0.308-11.909-0.602l0.678-0.642
							c-1.508-0.838-0.541,1.035-2.387,0.513l-0.005-0.867c-1.761,0.931-2.099-0.489-3.177-1.048l0.403,1.183l-2.104-0.488
							c-2.303-0.647-1.267-1.582-0.856-2.129l-1.698,0.693l-0.188-1.023c-1.308,1.01-1.138-0.318-3.252,0.052
							c-0.115-0.398,0.421-0.533-0.238-0.798l-3.513,0.874l2.091-0.305l-0.448,1.401c-2.255,0.767-2.815-0.597-4.371-0.428
							l1.097-0.267c-2.495-0.028-2.528-0.66-3.847-1.188c0.38,0.331,0.968,0.828-0.053,0.863c-0.739-0.033-0.307-0.564-0.964-0.828
							c-0.083,0.232-0.259,0.421-0.502,0.563l-0.194,0.098l-0.052,0.021l-0.027,0.011l-0.006,0.002
							c0.483,5.757-1.083-12.884,1.083,12.905h0l0.001-0.002l0.002-0.002l0.008-0.01l0.071-0.078l0.345-0.287
							c0.519-0.357,1.261-0.598,2.029-0.594c0.022,0.138,0.031,0.274-0.034,0.386c0.309-0.259,0.427-0.555,1.112-0.523l-0.069,1.147
							l0.911-1.354c0.883,0.085,1.922-0.914,1.974-0.189l-0.419,0.311c2.081-0.393,4.177-0.73,6.344-0.883l0.203,0.84
							c0.464-1.312,3.518,0.021,3.177-1.395c1.29,0.698,4.845-0.936,4.204,0.802c4.322,0,6.722-1.641,12.168-0.599
							c1.87,1.477,7.228,1.353,10.812,1.814c7.05-0.024,11.71-0.057,19.168,0.017c4.364,2.292,11.277-0.002,16.294,0.945l1.352-0.81
							c1.668,0.634,3.839,0.33,6.127,0.12l0.434-0.045l0.218-0.022l0.108-0.011l0.027-0.003h0.007
							c-0.104-29.182-0.03-8.09-0.055-14.603h-0.003l-0.013-0.001l-0.05-0.004l-0.801-0.06l-1.619-0.179
							c-1.083-0.149-2.163-0.396-3.195-0.822c-1.083,0.226-1.646,0.271-1.892,0.273c0.188,0.058,0.467,0.239,0.503,0.744
							c-1.183-0.472-3.702-0.361-3.402-1.321l0.321-0.063c0.305-0.953-3.751-0.009-4.99-1.057l0.597,1.157l-2.28-0.507l0.646-0.112
							c-10.396,0.865-14.343-3.39-24.313-2.965c1.479-0.918-2,0.264-1.91-1.008c-2.162-2.003-4.589-0.44-6.665-0.343
							c-0.01,0.062-0.046,0.13-0.177,0.208l-3.5-0.699c2.35-1.273-2.741,0.938-0.602-0.125c-9.064-2.611-21.386-2.599-32.074-3.637
							l0.45,0.437c-2.723-0.224-6.123,0.157-8.165-0.572c-2.05-0.726-4.54,0.938-5.337,0.979c-2.268,0.659-4.295-0.766-3.33-0.686
							c-2.419,0.158-4.692,1.606-8.026,0.977c-1.151-1.39-9.093,1.386-9.206-0.147l-0.035,0.13c-4.29-1.021-8.28,0.896-12.894,0.044
							c0,0,0.084-0.115,0.237-0.222l-9.175,4.953l2.823,5.038l8.129,3.923c7.206-0.498,14.406-0.891,21.6-1.17
							c5.739,0.556,11.452,1.193,17.115,1.952c13.871,0.306,27.476,1.356,41.125,3.476l3.127-0.647
							c7.718,3.377,18.727,3.152,27.633,5.886l0.332-0.958c2.568,0.321,2.314,0.887,2.926,1.152
							c2.995,0.389,6.015,0.704,9.035,0.979l4.535,0.373l0.566,0.044l0.284,0.022l0.142,0.011l0.07,0.006l0.018,0.001
							c-0.023-7.274,0.079,16.286-0.049-16.31l-0.031,0.003l-1.006,0.092l-2.013,0.189c-5.396,0.455-10.999,0.487-16.651,0.225
							c-11.321-0.525-22.685-1.885-33.684-2.938c-2.092-0.776-8.671-0.454-10.433-1.036c-7.351,1.418-15.279,2.306-22.824,4.443
							l0.252-0.192l-3.463,1.269l-0.11-0.036l-0.01-0.006l-0.001-0.001h0l0-0.001l0,0c-0.282-3.36,2.458,29.27,1.298,15.457l0,0
							l0.001,0.002l0.002,0.005l0.007,0.021l0.006,0.038l-0.023,0.069l-0.013,0.016l-0.007,0.007l-0.001,0.001l0,0.001h0l0,0l0,0
							c-0.591-7.033,1.322,15.744-1.325-15.769l0.001-0.003l0.002-0.005l0.026-0.04l-0.021,0.012l-0.011,0.007l-0.005,0.003
							c2.654,31.62,0.738,8.765,1.331,15.822h0.003l0.046-0.003l0.092-0.006l0.186-0.009l0.379-0.01l0.786,0.013l1.669,0.143
							c1.15,0.142,2.368,0.368,3.607,0.637c2.479,0.538,5.048,1.271,7.302,1.68l-0.28,0.077c26.61,3.533,51.142,2.064,76.526,5.699
							c12.098,2.887,27.165,0.848,41.047,1.421C196.92,329.77,223.947,328.228,226.182,328.389z"/>
						<path d="M265.459,333.16l-0.104-0.021C265.26,333.547,265.449,333.432,265.459,333.16z"/>
						<polygon points="209.91,315.438 210.096,315.444 209.385,314.871 						"/>
						<path d="M247.594,317.432c-1.656-0.409-1.754-0.301-1.541-0.105C246.658,317.438,247.189,317.502,247.594,317.432z"/>
						<path d="M278.49,335.887c0.813,0.271,0.57-0.06,0.166-0.469c-0.855-0.195-1.447-0.342-1.447-0.342
							C277.643,335.308,278.043,335.652,278.49,335.887z"/>
						<path d="M276.686,329.432l0.355-0.251C276.523,329.117,276.51,329.243,276.686,329.432z"/>
					</g>
				</g>
			</g>
		</g>
	</g>
</g>
</svg>
