<?xml version="1.0" encoding="utf-8"?>
<!-- Generator: Adobe Illustrator 14.0.0, SVG Export Plug-In . SVG Version: 6.00 Build 43363)  -->
<!DOCTYPE svg PUBLIC "-//W3C//DTD SVG 1.1//EN" "http://www.w3.org/Graphics/SVG/1.1/DTD/svg11.dtd">
<svg version="1.1" id="Layer_1" xmlns="http://www.w3.org/2000/svg" xmlns:xlink="http://www.w3.org/1999/xlink" x="0px" y="0px"
	 width="1842.386px" height="1945.262px" viewBox="0 0 1842.386 1945.262" enable-background="new 0 0 1842.386 1945.262"
	 xml:space="preserve">
<g>
	<g>
		<circle fill="#FCED27" cx="762.41" cy="474.455" r="96.548"/>
		<path fill="#E81C24" d="M392.186,245.452c-62.17-62.489-111.344-25.238-79.589,96.773
			c34.412,132.229,244.314,541.125,453.482,652.472C975.263,1106.048,392.186,245.452,392.186,245.452z"/>
		<path fill="#005D29" d="M787.397,1080.005c-62.507,44.557-180.443,342.551-180.443,342.551
			c29.708,66.842,184.535-0.242,184.535-0.242l63.759-221.977"/>
		<path fill="#2E3192" d="M1539.173,23.822C1301.507,43.683,83.456,1402.851,1635.73,1506.834c0,0-1440.879-282.224-141.121-1418.59
			"/>
	</g>
	<text transform="matrix(1 0 0 1 362.6538 1761.7319)" font-family="'DasReichtGutRegular'" font-size="327.7754">VIVACITY</text>
	<text transform="matrix(1 0 0 1 712.9448 1935.4409)" font-family="'CameoAppearanceNF'" font-size="307.8156">2010</text>
</g>
</svg>
